<svg xmlns="http://www.w3.org/2000/svg" width="785.414" height="859.509" viewBox="0 0 785.414 859.509">
  <g id="Image" transform="translate(-1011.094 -150.421)">
    <path id="borderPath" d="M1139.213,498c60.04-187.816,56.961-261.118,199.106-311.21s250.935-36.947,369.474,110.842,108.79,309.435,104.684,480.317,57.474,163.184-121.105,203.211-455.172,77.685-593.212-43.105S1079.173,685.816,1139.213,498Z" transform="translate(-23 -10)" fill="#370539" opacity="0.16"/>
    <g id="homeImage" transform="translate(1232.062 273.598)">
      <path id="Path_6" data-name="Path 6" d="M474.453,687.758a3.613,3.613,0,0,1-2.619-6.263l.248-.984-.1-.236a9.7,9.7,0,0,0-17.9.066c-2.927,7.051-6.654,14.113-7.572,21.568a28.706,28.706,0,0,0,.5,9.872,115.086,115.086,0,0,1-10.47-47.8,111.08,111.08,0,0,1,.689-12.392q.571-5.06,1.584-10.047A116.419,116.419,0,0,1,461.907,592.2a30.983,30.983,0,0,0,12.886-13.369,23.633,23.633,0,0,0,2.149-6.458c-.627.082-1.265.134-1.892.175l-.6.031-.074,0a3.58,3.58,0,0,1-2.94-5.832l.813-1c.411-.514.833-1.018,1.244-1.532a1.78,1.78,0,0,0,.134-.154c.473-.586.946-1.162,1.419-1.748a10.352,10.352,0,0,0-3.394-3.281c-4.741-2.777-11.281-.854-14.706,3.435s-4.083,10.3-2.89,15.662a41.487,41.487,0,0,0,5.738,12.793c-.257.329-.525.648-.782.977a117.167,117.167,0,0,0-12.23,19.375,48.71,48.71,0,0,0-2.908-22.625c-2.783-6.715-8-12.37-12.6-18.175-5.519-6.973-16.835-3.93-17.807,4.909q-.014.128-.028.257,1.024.578,2,1.226a4.9,4.9,0,0,1-1.976,8.919l-.1.015a48.772,48.772,0,0,0,1.285,7.291,50.21,50.21,0,0,0,25,31.468c.4.206.792.411,1.193.607a119.6,119.6,0,0,0-6.438,30.3,113.432,113.432,0,0,0,.082,18.315l-.031-.216a29.974,29.974,0,0,0-10.232-17.308c-7.874-6.469-19-8.851-27.495-14.05a5.625,5.625,0,0,0-8.616,5.473q.017.114.035.227a32.925,32.925,0,0,1,3.692,1.779q1.024.578,2,1.226a4.9,4.9,0,0,1-1.976,8.919l-.1.015-.206.031a48.809,48.809,0,0,0,8.978,14.058A50.254,50.254,0,0,0,437,689.929h.01a119.561,119.561,0,0,0,8.032,23.447h28.692c.1-.319.2-.648.288-.967a32.6,32.6,0,0,1-7.939-.473c2.129-2.612,4.257-5.245,6.386-7.857a1.785,1.785,0,0,0,.134-.154c1.08-1.337,2.17-2.663,3.25-4v0a47.749,47.749,0,0,0-1.4-12.164Z" transform="translate(-388.062 -183.598)" fill="#f2f2f2"/>
      <path id="Path_7" data-name="Path 7" d="M725.547,687.758a3.613,3.613,0,0,0,2.619-6.263l-.248-.984.1-.236a9.7,9.7,0,0,1,17.9.067c2.927,7.051,6.654,14.113,7.572,21.568a28.707,28.707,0,0,1-.5,9.872,115.087,115.087,0,0,0,10.47-47.8,111.058,111.058,0,0,0-.689-12.392q-.571-5.06-1.584-10.047A116.418,116.418,0,0,0,738.093,592.2a30.983,30.983,0,0,1-12.886-13.369,23.633,23.633,0,0,1-2.149-6.458c.627.082,1.265.134,1.892.175l.6.031.074,0a3.58,3.58,0,0,0,2.94-5.832l-.813-1c-.411-.514-.833-1.018-1.244-1.532a1.8,1.8,0,0,1-.134-.154c-.473-.586-.946-1.162-1.419-1.748a10.353,10.353,0,0,1,3.394-3.28c4.741-2.777,11.281-.854,14.706,3.435s4.083,10.3,2.89,15.662a41.486,41.486,0,0,1-5.738,12.793c.257.329.524.648.782.977a117.171,117.171,0,0,1,12.23,19.375,48.708,48.708,0,0,1,2.908-22.625c2.784-6.715,8-12.37,12.6-18.175,5.519-6.973,16.835-3.93,17.807,4.909q.014.128.028.257-1.024.578-2,1.226a4.9,4.9,0,0,0,1.976,8.919l.1.015a48.761,48.761,0,0,1-1.285,7.291,50.21,50.21,0,0,1-25,31.468c-.4.206-.792.411-1.193.607a119.6,119.6,0,0,1,6.438,30.3,113.428,113.428,0,0,1-.082,18.315l.031-.216a29.974,29.974,0,0,1,10.232-17.308c7.874-6.468,19-8.85,27.495-14.05a5.625,5.625,0,0,1,8.616,5.473q-.017.114-.035.227a32.912,32.912,0,0,0-3.692,1.779q-1.024.578-2,1.226a4.9,4.9,0,0,0,1.976,8.919l.1.015.206.031a48.806,48.806,0,0,1-8.978,14.058A50.255,50.255,0,0,1,763,689.929h-.01a119.571,119.571,0,0,1-8.032,23.447H726.266c-.1-.319-.2-.648-.288-.967a32.6,32.6,0,0,0,7.939-.473c-2.129-2.612-4.258-5.245-6.386-7.857a1.786,1.786,0,0,1-.134-.154c-1.08-1.337-2.17-2.663-3.25-4v0a47.752,47.752,0,0,1,1.4-12.164Z" transform="translate(-388.062 -183.598)" fill="#f2f2f2"/>
      <path id="Path_8" data-name="Path 8" d="M95.525,514.522l8.388,3.574,17.779-30.651-12.38-5.275Z" fill="#a0616a"/>
      <path id="Path_9" data-name="Path 9" d="M164.839,522.46h9.117l4.338-35.168H164.837Z" fill="#a0616a"/>
      <path id="Path_10" data-name="Path 10" d="M552.58,715.569h28.037v-.355A10.913,10.913,0,0,0,569.705,704.3h0l-5.121-3.885-9.555,3.886h-2.448Z" transform="translate(-388.062 -183.598)" fill="#2f2e41"/>
      <path id="Path_11" data-name="Path 11" d="M478.487,704.209,504.28,715.2l.139-.326a10.914,10.914,0,0,0-5.761-14.318h0l-3.188-5.582-10.314-.172-2.252-.96Z" transform="translate(-388.062 -183.598)" fill="#2f2e41"/>
      <path id="Path_12" data-name="Path 12" d="M561.844,497.923,575.7,582.3,571.93,594.87l4.948,8.9-7.267,78.2,2.95,6.494-8.242,5.083H547.549l-.89-70.8-4.143-10.395v-5.729l-8.433-43.171-.9,53.613-2.692,5.193-24.119,63.138H487.567l1.454-11.2h0c-3.369-1.706,5.059-6.691,5.868-10.38l-2.769-6.23,2.769-11.768,6.378-32.729-6.517-38.807,2.334-24.978-1.215-8.544.092-2.763s3.214-1.24.145-4.336c-4.25-24.091.978-29.319.978-29.319L518.01,492.1Z" transform="translate(-388.062 -183.598)" fill="#2f2e41"/>
      <circle id="ab6171fa-7d69-4734-b81c-8dff60f9761b" cx="19.004" cy="19.004" r="19.004" transform="translate(121.034 165.2)" fill="#a0616a"/>
      <path id="Path_13" data-name="Path 13" d="M504.273,331.347a7.478,7.478,0,0,1-8.159,8.058l-11.042,24.173-7.328-11.706,11.609-21.161a7.519,7.519,0,0,1,14.92.635Z" transform="translate(-388.062 -183.598)" fill="#a0616a"/>
      <path id="Path_14" data-name="Path 14" d="M563.09,499.739a1.786,1.786,0,0,1-2.15,1.99c-9.95-2.15-51.01,3.01-64.61,16.87a1.8,1.8,0,0,1-3.08-1.39c.24-2.98,4.57-16.46,4.57-16.46l1.32-8.4a1.947,1.947,0,0,0,0-.59l-1.21-6.95a1.821,1.821,0,0,0-.5-.96l-.41-.41a1.8,1.8,0,0,1,0-2.54l1.59-1.58a1.841,1.841,0,0,0,.51-1.51l-2.11-15.6c-.01-.03-.01-.07-.02-.1l-9.32-49.22a1.8,1.8,0,0,1,.99-1.95l15.84-7.57a1.768,1.768,0,0,0,.45-.3l11.06-10.26a1.854,1.854,0,0,1,1.2-.48l19.88-.15a1.81,1.81,0,0,1,1.43.7l6.05,7.87a1.794,1.794,0,0,0,.84.6l4.1,1.39,11.84,4.02.55.19a1.784,1.784,0,0,1,1.2,1.62.861.861,0,0,1,.01.16l-2.96,61.26a1.94,1.94,0,0,0,.14.79l1.42,3.31a1.8,1.8,0,0,1-.41,2c-.42.4-.9.86-1.2,1.2-.61.67.69,5.98.89,6.75a1.419,1.419,0,0,1,.04.2l.73,5.49a1.784,1.784,0,0,1-.74,1.69,1.789,1.789,0,0,0-.32,2.62l1.6,1.89a1.908,1.908,0,0,1,.41.93Z" transform="translate(-388.062 -183.598)" fill="#6c63ff"/>
      <path id="Path_15" data-name="Path 15" d="M523.238,385.876q-.122-.268-.243-.538c.031,0,.062.005.093.006Z" transform="translate(-388.062 -183.598)" fill="#2f2e41"/>
      <path id="Path_16" data-name="Path 16" d="M590.9,493.488a7.478,7.478,0,0,0-8.138-8.079l-10.98-24.2-7.358,11.687,11.555,21.19a7.519,7.519,0,0,0,14.921-.6Z" transform="translate(-388.062 -183.598)" fill="#a0616a"/>
      <path id="Path_17" data-name="Path 17" d="M576.02,468.079l-.61,1.14-6.43,12.02-.9,1.68-6.28-8.65-20.61-28.38,2.93-17.8,5.39-22.3,7.99-.46,5.6,2.29h0a11.5,11.5,0,0,1,6.64,12.723l-4.96,25.4Z" transform="translate(-388.062 -183.598)" fill="#6c63ff"/>
      <path id="Path_18" data-name="Path 18" d="M544.645,350.7a10.7,10.7,0,0,0-1.86-4.373,5.23,5.23,0,0,0-7.791-.237,5.734,5.734,0,0,0,.252-2.69,14.571,14.571,0,0,1-4.4,1.308l3.372-3.521-16.787,1.542c-1.733.159-3.606.385-4.878,1.7s-1.343,4.125.265,4.859c-3.169-1.193-6.807.539-8.9,3.441s-2.86,6.73-3,10.443c-.183,4.815.714,9.942,3.654,13.487,1.922,2.318,4.543,3.764,6.67,5.849l.064.063a18.908,18.908,0,0,0,18.3,5.1c.363-.1.723-.21,1.085-.314,1.809.818,4.062-.3,5.2-2.12,1.218-1.94,1.458-4.422,1.51-6.786a55.636,55.636,0,0,0-.57-9.245c-.5-3.446-.957-7.86,1.772-9.591,2.125-1.348,4.765-.018,6.9,1.3A35.531,35.531,0,0,0,544.645,350.7Z" transform="translate(-388.062 -183.598)" fill="#2f2e41"/>
      <path id="Path_19" data-name="Path 19" d="M504.121,438.679l-12.663-.914-21.977-26.907-16.313-23.383,3.757-9.506,17.759-25.442-.184-2.2,1.965-.354.035-2.646,1.631.259,4.369-6.259,10,8-5.655,16.613-.345,3.387-1.957,3.373.957,4.627-3.74,3.549-1.8,5.289c7.768,5.109,15.135,12.752,22.317,22.317Z" transform="translate(-388.062 -183.598)" fill="#6c63ff"/>
      <path id="Path_20" data-name="Path 20" d="M288.635,284.344l-1.373,12.73.808,16.694-36.976-4.393-3.475-25.031,4.427.043Z" fill="#ffb6b6"/>
      <path id="Path_21" data-name="Path 21" d="M644.5,426.1l8.786-5.272,4.213-6.5,13,2,15.892,10.653-.156,24.161L676.383,476.2l-41.3-5.272-1.569-8.839s-11.422-15.341.879-24.128Z" transform="translate(-388.062 -183.598)" fill="#6c63ff"/>
      <path id="Path_22" data-name="Path 22" d="M591.766,354.359a6.707,6.707,0,0,0,4.335,9.326l28.607,53.976,11.547-8.912L604.5,358.5a6.743,6.743,0,0,0-12.738-4.136Z" transform="translate(-388.062 -183.598)" fill="#ffb6b6"/>
      <path id="Path_23" data-name="Path 23" d="M638.692,435.9s-2.651,2.351-6.421-4.141c-3.018-5.2-18.069-28.469-20.2-36.537a5.269,5.269,0,0,1-5.213-3.814l16.167-6.275c3.515,1.757,2.539,4.193,1.648,5.453l6.021,9.032L650.723,422.1l-10.084,12.14Z" transform="translate(-388.062 -183.598)" fill="#6c63ff"/>
      <path id="Path_24" data-name="Path 24" d="M307.814,515.476H299.73l-3.848-31.182h11.932Z" fill="#ffb6b6"/>
      <path id="Path_25" data-name="Path 25" d="M700.142,713.08h-5.8l-1.035-5.474-2.65,5.474H675.283a3.457,3.457,0,0,1-1.964-6.3L685.6,698.3v-5.534l12.915.771Z" transform="translate(-388.062 -183.598)" fill="#2f2e41"/>
      <path id="Path_26" data-name="Path 26" d="M262.4,515.476H254.32l-3.848-31.182H262.4Z" fill="#ffb6b6"/>
      <path id="Path_27" data-name="Path 27" d="M654.732,713.08h-5.8l-1.035-5.474-2.65,5.474H629.874a3.456,3.456,0,0,1-1.964-6.3l12.279-8.48v-5.534l12.915.771Z" transform="translate(-388.062 -183.598)" fill="#2f2e41"/>
      <path id="Path_28" data-name="Path 28" d="M699.364,672.184h-.088l-1.555-50.7a13.257,13.257,0,0,0-.174-12.528l-.223-.4.577-2.675a17.04,17.04,0,0,0-.974-10.256l-1.451-47.294c5.182-33.582-19.513-55.483-19.513-55.483H638.971l-2.644,9.083-2.827,2.4,1.07,3.634-3.07,4.365-.471,7.8c-5.25,51.153-4.3,101,4.034,149.292l-.227.115a1.919,1.919,0,0,0-.784,2.531c.385,1.115,1.36,1.791,2.178,1.508l19.537-.68a1.919,1.919,0,0,0,.784-2.531c-.385-1.115-1.36-1.791-2.178-1.508l-1.328.672,2.833-48.924-.314-8.936.648-10.138,2.995-45.6,11.335,56.076,11.578,60.741a2.13,2.13,0,0,0,1.436,3.709h15.809a2.136,2.136,0,1,0,0-4.273Z" transform="translate(-388.062 -183.598)" fill="#2f2e41"/>
      <path id="Path_29" data-name="Path 29" d="M739.877,513.705a6.707,6.707,0,0,0-4.605-9.2L705.1,451.391l-11.282,9.245,33.2,49.307a6.743,6.743,0,0,0,12.854,3.763Z" transform="translate(-388.062 -183.598)" fill="#ffb6b6"/>
      <path id="Path_30" data-name="Path 30" d="M683.877,426.945s2.581-2.427,6.539,3.952c3.168,5.107,25.608,34.553,27.974,42.555a5.269,5.269,0,0,1,5.322,3.66l-15.977,6.744c-3.564-1.654-5.225-4.748-4.371-6.033l-6.283-8.853-23.554-27.193,8.452-13.112Z" transform="translate(-388.062 -183.598)" fill="#6c63ff"/>
      <path id="Path_31" data-name="Path 31" d="M803.283,714.849a1.548,1.548,0,0,1-1.553,1.553H389.679a1.553,1.553,0,0,1,0-3.106h412.05a1.549,1.549,0,0,1,1.554,1.553Z" transform="translate(-388.062 -183.598)" fill="#ccc"/>
      <path id="Path_32" data-name="Path 32" d="M651.182,379.266c-5.379,10.6-1.865,22.883,8.117,29.341,10.794,6.983,24.808,5.454,29.341-8.117,5.048-15.113.9-21.6-8.117-29.341C669.955,362.072,656.994,367.81,651.182,379.266Z" transform="translate(-388.062 -183.598)" fill="#2f2e41"/>
      <path id="Path_33" data-name="Path 33" d="M677.661,402.884a17.031,17.031,0,1,1-27.1-20.635l.148-.194a17.03,17.03,0,1,1,26.95,20.827Z" transform="translate(-388.062 -183.598)" fill="#ffb6b6"/>
      <path id="Path_34" data-name="Path 34" d="M645.969,377.549a23.27,23.27,0,0,0,9.823,5.566,10.176,10.176,0,0,1,2.589-2.145,10.887,10.887,0,0,0-.95,3.074c1.642,3.408,8.349,5.857,14.758,8.362l8.49-14.983-11.237-6.367C660.412,364.813,649.782,367.477,645.969,377.549Z" transform="translate(-388.062 -183.598)" fill="#2f2e41"/>
      <path id="Path_35" data-name="Path 35" d="M687.083,371.168a5.234,5.234,0,0,1,4.948.723,11.027,11.027,0,0,1,3.23,3.929,28.17,28.17,0,0,1,2.929,7.982c.485,2.417.4,5.339-1.766,6.6-1.809,1.052-4.4.39-6.059-1.015a13.461,13.461,0,0,1-3.411-5.306,18.753,18.753,0,0,0-3.021-5.526l1.5.7a13.091,13.091,0,0,1-.652-4.46,4.319,4.319,0,0,1,2.3-3.626Z" transform="translate(-388.062 -183.598)" fill="#2f2e41"/>
      <path id="Path_36" data-name="Path 36" d="M667.647,373.131l12.056,6.831a14.128,14.128,0,0,1,5.327,19.257h0a21.929,21.929,0,0,1-28.039,9.2l11.016-9.725-14.945,7.614-3.191-1.808C665.9,401.588,668.991,389.016,667.647,373.131Z" transform="translate(-388.062 -183.598)" fill="#2f2e41"/>
      <path id="Path_37" data-name="Path 37" d="M163.162,0,123.5,66.033l39.8,23.5Z" fill="#8c8c8c"/>
      <path id="Path_38" data-name="Path 38" d="M203,66.033,163.162,0l.135,89.529Z" fill="#333"/>
      <path id="Path_39" data-name="Path 39" d="M123.5,66.033l39.749-18.117.048,41.613Z" fill="#383838"/>
      <path id="Path_40" data-name="Path 40" d="M203,66.033,163.249,47.916l.086,40.092Z" fill="#141414"/>
      <path id="Path_41" data-name="Path 41" d="M202.9,73.6l-39.7,23.5V129.5Z" fill="#333"/>
      <path id="Path_42" data-name="Path 42" d="M123.5,73.6l39.7,23.5V129.5Z" fill="#8c8c8c"/>
    </g>
  </g>
</svg>
